<svg width="48" height="48" xmlns="http://www.w3.org/2000/svg">

 <g>
  <title>Layer 1</title>
  <path id="svg_1" fill="none" d="m0,0l48,0l0,48l-48,0l0,-48z"/>
  <path fill="#9e9e9e" id="svg_2" d="m44,6l-30,0c-1.38,0 -2.47,0.7 -3.19,1.76l-10.81,16.23l10.81,16.23c0.72,1.06 1.81,1.78 3.19,1.78l30,0c2.21,0 4,-1.79 4,-4l0,-28c0,-2.21 -1.79,-4 -4,-4zm-6,25.17l-2.83,2.83l-7.17,-7.17l-7.17,7.17l-2.83,-2.83l7.17,-7.17l-7.17,-7.17l2.83,-2.83l7.17,7.17l7.17,-7.17l2.83,2.83l-7.17,7.17l7.17,7.17z"/>
 </g>
</svg>